HIERARCHY
ROOT Hips
{
	OFFSET 0.000000 0.000000 0.000000
	CHANNELS 6 Xposition Yposition Zposition Xrotation Yrotation Zrotation
	JOINT LeftUpLeg_virtual
	{
		OFFSET 0.000000 0.000000 0.000000
		CHANNELS 3 Xrotation Yrotation Zrotation
		JOINT LeftUpLeg
		{
			OFFSET 15.427100 -6.655098 0.678600
			CHANNELS 3 Xrotation Yrotation Zrotation
			JOINT LeftLeg
			{
				OFFSET 4.081073 -39.591068 13.024000
				CHANNELS 3 Xrotation Yrotation Zrotation
				JOINT LeftFoot
				{
					OFFSET -4.081074 -37.707932 -15.979700
					CHANNELS 3 Xrotation Yrotation Zrotation
					JOINT LeftToeBase
					{
						OFFSET 5.346399 -15.068900 20.645000
						CHANNELS 3 Xrotation Yrotation Zrotation
						JOINT LeftToe_End
						{
							OFFSET 2.754700 0.931300 11.300900
							CHANNELS 3 Xrotation Yrotation Zrotation
							End Site
							{
								OFFSET 0 0 0
							}
						}
					}
				}
			}
		}
	}
	JOINT RightUpLeg_virtual
	{
		OFFSET 0.000000 0.000000 0.000000
		CHANNELS 3 Xrotation Yrotation Zrotation
		JOINT RightUpLeg
		{
			OFFSET -15.569500 -6.655098 0.678600
			CHANNELS 3 Xrotation Yrotation Zrotation
			JOINT RightLeg
			{
				OFFSET -4.081825 -39.591045 13.023800
				CHANNELS 3 Xrotation Yrotation Zrotation
				JOINT RightFoot
				{
					OFFSET 4.081824 -37.707954 -15.979600
					CHANNELS 3 Xrotation Yrotation Zrotation
					JOINT RightToeBase
					{
						OFFSET -5.346400 -15.068900 20.645000
						CHANNELS 3 Xrotation Yrotation Zrotation
						JOINT RightToe_End
						{
							OFFSET -2.754700 0.931300 11.300900
							CHANNELS 3 Xrotation Yrotation Zrotation
							End Site
							{
								OFFSET 0 0 0
							}
						}
					}
				}
			}
		}
	}
	JOINT Spine_virtual
	{
		OFFSET 0.000000 0.000000 0.000000
		CHANNELS 3 Xrotation Yrotation Zrotation
		JOINT Spine
		{
			OFFSET -0.279200 12.230698 -2.892100
			CHANNELS 3 Xrotation Yrotation Zrotation
			JOINT Spine1
			{
				OFFSET -0.232667 10.192268 -1.242267
				CHANNELS 3 Xrotation Yrotation Zrotation
				JOINT Spine1_split
				{
					OFFSET -0.232667 10.192268 -1.242267
					CHANNELS 3 Xrotation Yrotation Zrotation
					JOINT Spine2
					{
						OFFSET -0.232667 10.192268 -1.242267
						CHANNELS 3 Xrotation Yrotation Zrotation
						JOINT Neck_virtual
						{
							OFFSET 0.000000 0.000000 0.000000
							CHANNELS 3 Xrotation Yrotation Zrotation
							JOINT Neck
							{
								OFFSET -0.418800 17.814194 8.416900
								CHANNELS 3 Xrotation Yrotation Zrotation
								JOINT Head
								{
									OFFSET 0.000000 7.031097 3.806800
									CHANNELS 3 Xrotation Yrotation Zrotation
									JOINT HeadTop_End
									{
										OFFSET 0.000000 24.646606 12.978600
										CHANNELS 3 Xrotation Yrotation Zrotation
										End Site
										{
											OFFSET 0 0 0
										}
									}
								}
							}
						}
						JOINT LeftShoulder_virtual
						{
							OFFSET 0.000000 0.000000 0.000000
							CHANNELS 3 Xrotation Yrotation Zrotation
							JOINT LeftShoulder
							{
								OFFSET 8.476499 7.247704 -3.868750
								CHANNELS 3 Xrotation Yrotation Zrotation
								JOINT LeftShoulder_split
								{
									OFFSET 8.476499 7.247704 -3.868750
									CHANNELS 3 Xrotation Yrotation Zrotation
									JOINT LeftArm
									{
										OFFSET 9.308998 -2.777710 0.208600
										CHANNELS 3 Xrotation Yrotation Zrotation
										JOINT LeftForeArm
										{
											OFFSET 29.972298 0.000000 0.000000
											CHANNELS 3 Xrotation Yrotation Zrotation
											JOINT LeftHand
											{
												OFFSET 26.026505 0.000000 0.000000
												CHANNELS 3 Xrotation Yrotation Zrotation
												End Site
												{
													OFFSET 0 0 0
												}
											}
										}
									}
								}
							}
						}
						JOINT RightShoulder_virtual
						{
							OFFSET 0.000000 0.000000 0.000000
							CHANNELS 3 Xrotation Yrotation Zrotation
							JOINT RightShoulder
							{
								OFFSET -7.570500 7.247704 -3.868750
								CHANNELS 3 Xrotation Yrotation Zrotation
								JOINT RightShoulder_split
								{
									OFFSET -7.570500 7.247704 -3.868750
									CHANNELS 3 Xrotation Yrotation Zrotation
									JOINT RightArm
									{
										OFFSET -9.308998 -2.777710 0.208500
										CHANNELS 3 Xrotation Yrotation Zrotation
										JOINT RightForeArm
										{
											OFFSET -29.972300 0.000000 0.000000
											CHANNELS 3 Xrotation Yrotation Zrotation
											JOINT RightHand
											{
												OFFSET -26.026505 0.000000 0.000000
												CHANNELS 3 Xrotation Yrotation Zrotation
												End Site
												{
													OFFSET 0 0 0
												}
											}
										}
									}
								}
							}
						}
					}
				}
			}
		}
	}
}
MOTION
Frames: 11
Frame Time: 0.03333333
-6.454355 82.548782 2.268719 0.000000 0.000000 0.000000 -16.837637 -65.342091 -17.632535 -31.325177 -2.913216 28.697723 37.898541 8.817216 -7.099512 0.686770 3.759149 -14.259761 1.902394 2.060887 0.475189 0.000000 0.000000 0.000000 -17.972208 -58.698789 -15.433972 -18.251700 -22.284237 -22.598267 36.932154 -8.228933 2.768202 -14.046714 -5.256468 16.035515 -5.725133 -3.377159 6.823749 0.000000 0.000000 0.000000 -26.551239 -63.153910 -22.924454 5.373469 13.374430 4.032521 2.917623 2.391834 1.565107 0.220032 3.819452 0.445004 0.000000 0.000000 0.000000 13.892393 5.510638 -1.973549 12.027973 7.682598 -2.644124 25.122918 43.405200 -13.666187 0.000000 0.000000 0.000000 13.901250 4.857528 -1.727216 9.924882 -11.123566 -6.743141 -1.433161 -14.745214 -4.248184 3.255616 -12.338612 -35.724130 -86.618034 7.702963 -80.119888 0.000000 0.000000 0.000000 14.165331 6.127667 0.035917 3.441369 5.860982 -10.355879 -1.291480 -2.758187 -11.842670 -10.942170 32.111281 41.355061 -67.520163 74.559841 56.281384 0.000000 0.000000 0.000000 
-6.829945 82.470245 3.823280 0.000000 0.000000 0.000000 -16.830839 -65.393194 -17.550953 -31.336174 -1.621052 29.182174 38.314697 8.491869 -7.254354 -0.055068 3.594405 -14.056834 1.321465 1.925864 1.133739 0.000000 0.000000 0.000000 -17.260183 -58.988621 -14.926031 -18.625361 -21.595388 -22.149081 37.755336 -8.229515 2.297070 -13.716725 -6.143674 15.757234 -4.816710 -3.512575 7.317164 0.000000 0.000000 0.000000 -24.724168 -63.101488 -21.602054 5.619746 13.215917 3.935607 3.410346 2.672033 1.647902 0.019487 5.064777 0.325368 0.000000 0.000000 0.000000 13.956522 5.856204 -1.989333 11.712261 7.558361 -2.371444 24.425807 43.998047 -14.112425 0.000000 0.000000 0.000000 14.298559 5.218902 -1.835980 10.134000 -10.925828 -6.159293 -3.117931 -12.273695 -5.700345 1.892480 -10.489078 -36.723147 -86.467606 8.349626 -79.727835 0.000000 0.000000 0.000000 14.890019 6.577246 -0.049428 3.234591 7.769699 -10.765394 -1.928342 -1.447857 -11.590315 -10.574266 33.544452 41.964771 -70.067509 74.883954 58.700278 0.000000 0.000000 0.000000 
-6.825541 82.061592 5.611778 0.000000 0.000000 0.000000 -16.331884 -64.469753 -16.805938 -32.417164 0.479002 29.090326 39.539777 7.872450 -7.465385 -2.215647 3.893904 -12.662704 0.487105 1.785031 1.952105 0.000000 0.000000 0.000000 -15.991616 -58.372900 -13.765089 -19.305617 -20.428083 -21.117393 39.119628 -7.538605 1.502514 -13.184020 -7.222042 15.799423 -4.509675 -3.448999 7.198576 0.000000 0.000000 0.000000 -21.941785 -62.671801 -19.219256 6.059650 13.082637 4.232979 3.482404 3.800057 1.539952 -0.296693 5.819154 0.357463 0.000000 0.000000 0.000000 13.990886 6.975549 -2.168336 10.502890 7.770895 -2.575932 23.142918 44.963036 -15.262613 0.000000 0.000000 0.000000 14.247699 6.468365 -2.097589 10.209520 -10.875092 -5.154314 -3.996092 -10.204645 -6.639664 -1.013414 -7.736475 -38.787719 -87.021118 8.655375 -80.065588 0.000000 0.000000 0.000000 15.531266 7.848625 -0.405312 3.334039 10.593556 -10.735989 -2.413996 -1.575146 -12.557223 -8.894855 35.428936 41.873417 -72.271816 74.856018 60.734548 0.000000 0.000000 0.000000 
-6.590199 81.524673 7.340816 0.000000 0.000000 0.000000 -15.278230 -62.846101 -15.440240 -34.091014 2.853130 28.176480 41.249534 6.907794 -7.447116 -4.967325 4.368614 -10.602116 -0.290206 1.634031 2.623588 0.000000 0.000000 0.000000 -14.554568 -57.215504 -12.323783 -20.447281 -18.818810 -19.628589 40.794831 -6.209075 0.398910 -12.504927 -8.191471 16.314035 -5.083622 -3.205012 6.489235 0.000000 0.000000 0.000000 -18.623042 -61.881186 -16.242393 6.444492 12.907591 4.824223 3.155642 5.450345 1.358634 -0.469604 5.597177 0.228547 0.000000 0.000000 0.000000 14.062361 8.589932 -2.418662 8.650485 8.384003 -2.960408 21.687958 45.978562 -16.920808 0.000000 0.000000 0.000000 13.982777 8.276834 -2.470512 10.206040 -11.190872 -3.836994 -3.857378 -8.769767 -7.262534 -5.228860 -5.187279 -41.552603 -87.491465 8.689448 -80.489108 0.000000 0.000000 0.000000 16.052270 9.634290 -0.962538 3.677668 13.683289 -10.268404 -2.930303 -3.443451 -13.443834 -6.717492 36.926181 41.468537 -75.054135 74.591540 63.315942 0.000000 0.000000 0.000000 
-6.167960 80.901810 8.941525 0.000000 0.000000 0.000000 -13.889521 -60.674346 -13.715556 -35.856536 4.934915 26.579292 42.925102 5.580161 -7.023017 -7.100297 4.654905 -8.722063 -0.964421 1.459821 3.011808 0.000000 0.000000 0.000000 -13.128596 -55.564753 -10.782228 -21.653844 -16.797669 -17.697669 42.333168 -4.427820 -1.077669 -12.261417 -8.912369 16.887858 -6.415180 -2.797152 5.308798 0.000000 0.000000 0.000000 -15.280457 -60.769983 -13.220787 6.729709 12.568337 5.437525 2.532012 7.274435 1.190441 -0.711922 4.865458 0.498602 0.000000 0.000000 0.000000 14.159947 10.389711 -2.653823 6.310289 9.353620 -3.080920 20.525290 46.967266 -18.820667 0.000000 0.000000 0.000000 13.730519 10.250534 -2.918853 10.201690 -11.787385 -2.461252 -3.168035 -7.650417 -7.290756 -10.291553 -3.533049 -44.323519 -87.264560 8.673037 -80.411503 0.000000 0.000000 0.000000 16.353727 11.572825 -1.591365 4.146837 16.639975 -9.647433 -3.406187 -5.661677 -13.781065 -5.038803 37.720413 41.425429 -79.270171 74.184119 67.334088 0.000000 0.000000 0.000000 
-5.679960 80.440140 10.261021 0.000000 0.000000 0.000000 -12.149094 -57.963977 -11.724917 -37.360052 6.363263 24.392977 43.957619 4.041201 -6.146219 -7.835573 4.576451 -7.479345 -1.203164 1.237197 3.072955 0.000000 0.000000 0.000000 -11.512735 -53.436712 -9.114530 -22.361520 -14.492357 -15.406315 43.467655 -2.419022 -2.730973 -12.951728 -9.241344 16.964336 -7.897545 -2.257691 3.924302 0.000000 0.000000 0.000000 -12.277564 -59.597881 -10.647473 6.962362 11.995686 5.817600 1.699364 9.024700 1.109749 -0.771421 3.962042 0.788687 0.000000 0.000000 0.000000 14.148784 12.114714 -2.861251 3.776955 10.658637 -2.651298 20.065614 48.090696 -20.612877 0.000000 0.000000 0.000000 13.638348 12.045063 -3.397513 10.234338 -12.445978 -1.220442 -2.169925 -6.713866 -7.126329 -15.476199 -3.244219 -46.619886 -86.227143 8.737276 -79.763919 0.000000 0.000000 0.000000 16.482725 13.375400 -2.217253 4.650046 19.020672 -9.083031 -3.481093 -7.191673 -13.903656 -4.855243 37.744872 42.487065 -84.352980 73.624590 72.282396 0.000000 0.000000 0.000000 
-5.141732 80.197968 11.788078 0.000000 0.000000 0.000000 -10.328077 -54.783329 -9.676384 -38.339556 7.002546 21.901229 44.024128 2.344150 -4.932220 -7.199088 3.977103 -6.872245 -0.950568 0.955104 2.895339 0.000000 0.000000 0.000000 -9.828987 -50.934841 -7.410526 -22.451757 -12.087894 -12.914934 44.438450 -0.385332 -4.225618 -14.169019 -9.086035 16.241789 -9.115147 -1.628709 2.602137 0.000000 0.000000 0.000000 -9.621343 -58.401703 -8.589649 7.209732 11.259018 5.816902 0.809580 10.579532 1.121288 -0.631424 3.443462 1.034508 0.000000 0.000000 0.000000 13.972215 13.663167 -3.039329 1.389421 12.264183 -1.638304 19.978023 49.253273 -21.647526 0.000000 0.000000 0.000000 13.777722 13.559990 -3.852200 10.227973 -12.940786 -0.296974 -0.819569 -5.659037 -7.205753 -20.081132 -4.144154 -48.419040 -84.691730 8.872468 -78.979281 0.000000 0.000000 0.000000 16.422753 14.924633 -2.788363 5.069792 20.750683 -8.789893 -3.301382 -8.092569 -13.627242 -6.057432 37.243546 44.813305 -89.075844 73.020323 77.011551 0.000000 0.000000 0.000000 
-4.580825 80.092850 13.497589 0.000000 0.000000 0.000000 -8.549074 -51.225060 -7.731405 -38.737858 6.687625 19.427203 43.223981 0.665124 -3.548228 -5.979017 2.827417 -6.410422 -0.062996 0.630489 2.508751 0.000000 0.000000 0.000000 -8.188163 -47.962876 -5.747306 -21.987491 -9.878046 -10.337013 45.652902 1.591789 -5.283589 -15.260249 -8.433066 14.964099 -9.879420 -0.986935 1.556606 0.000000 0.000000 0.000000 -7.475166 -57.144634 -7.045131 7.636700 10.458434 5.385438 -0.008455 11.938390 1.171341 -0.764904 3.600548 1.029856 0.000000 0.000000 0.000000 13.659639 15.025889 -3.172357 -0.532135 13.867591 -0.226741 19.925241 50.639965 -21.607112 0.000000 0.000000 0.000000 14.036888 14.843581 -4.199553 10.105060 -13.012746 0.240764 0.069528 -4.535080 -7.325630 -23.232624 -5.734424 -49.707965 -83.295414 9.114992 -78.635312 0.000000 0.000000 0.000000 16.283992 16.244937 -3.216821 5.402983 21.764442 -8.816697 -3.361205 -8.244985 -13.316010 -7.772287 36.585106 47.848269 -92.960794 72.604166 81.091858 0.000000 0.000000 0.000000 
-4.128339 80.013268 15.337746 0.000000 0.000000 0.000000 -7.046117 -47.310671 -6.101296 -38.522950 5.257210 16.960500 42.090829 -0.761956 -2.106484 -5.075881 1.285483 -5.678454 1.200759 0.309624 1.995260 0.000000 0.000000 0.000000 -6.745214 -44.674577 -4.296253 -21.156200 -8.253829 -7.792779 46.899453 3.475909 -5.859535 -15.963841 -7.261640 13.491183 -10.015168 -0.429309 0.969786 0.000000 0.000000 0.000000 -5.868376 -55.677216 -5.871779 8.298215 9.742206 4.678114 -0.715590 13.150114 1.241069 -0.763305 4.102587 0.503533 0.000000 0.000000 0.000000 13.230293 16.269186 -3.284490 -1.612862 15.178659 1.327274 19.403066 52.131777 -20.247529 0.000000 0.000000 0.000000 14.245606 16.019326 -4.392750 9.845750 -12.872005 0.405006 0.228928 -3.596243 -7.246391 -24.855113 -7.422971 -50.520710 -82.231065 9.455970 -78.864670 0.000000 0.000000 0.000000 16.258825 17.417262 -3.551906 5.652402 22.006890 -9.030812 -4.025579 -7.587872 -13.022820 -8.946041 35.873444 50.831869 -96.397001 72.575596 84.954542 0.000000 0.000000 0.000000 
-3.773676 79.927315 16.889309 0.000000 0.000000 0.000000 -5.912544 -43.269709 -4.926144 -37.807293 2.846329 14.424330 41.347008 -1.892483 -0.585545 -4.866416 -0.394654 -4.711663 1.879177 0.020859 1.570543 0.000000 0.000000 0.000000 -5.894332 -41.157043 -3.302078 -19.898368 -7.311560 -5.179585 47.701662 5.079947 -6.083045 -16.684289 -5.782536 11.672257 -9.480951 0.029796 0.886185 0.000000 0.000000 0.000000 -4.774064 -53.816235 -4.907111 9.102013 9.234594 3.963617 -1.330293 14.294101 1.316888 -0.629489 4.676471 0.044551 0.000000 0.000000 0.000000 12.867774 17.506968 -3.419216 -1.804066 16.060573 2.788113 17.691093 53.093280 -17.390942 0.000000 0.000000 0.000000 14.318715 17.211254 -4.451320 9.453434 -12.726966 0.129285 0.216708 -3.258206 -6.695092 -25.660491 -8.324033 -51.163431 -81.198457 10.046973 -79.284535 0.000000 0.000000 0.000000 16.343876 18.563129 -3.818001 5.738948 21.716955 -9.280030 -4.951452 -6.015937 -12.506449 -8.772312 35.384758 53.090818 -100.699241 72.914189 89.856985 0.000000 0.000000 0.000000 
-3.571952 79.964821 17.525984 0.000000 0.000000 0.000000 -4.942273 -39.254829 -4.087612 -36.653981 -0.034309 11.918548 41.172104 -2.562560 0.867377 -5.362386 -2.048062 -3.701792 1.581835 -0.191089 1.352315 0.000000 0.000000 0.000000 -5.600447 -37.231781 -2.718400 -18.160512 -7.022183 -2.524220 47.531471 6.121362 -5.963576 -17.976744 -4.210836 9.176016 -8.058941 0.422185 1.267344 0.000000 0.000000 0.000000 -4.036350 -51.526701 -4.028245 9.968062 8.965865 3.451577 -1.848885 15.440442 1.396838 -0.550681 5.119295 -0.266168 0.000000 0.000000 0.000000 12.704604 18.735834 -3.617552 -1.403341 16.364679 3.922183 14.992610 53.244770 -13.678988 0.000000 0.000000 0.000000 14.221924 18.480171 -4.421572 8.977444 -12.530109 -0.674255 0.286044 -3.589126 -5.797939 -26.351606 -7.832962 -51.895825 -80.254934 10.922083 -79.872355 0.000000 0.000000 0.000000 16.525007 19.685761 -4.084717 5.728495 21.162093 -9.409431 -5.712652 -3.922879 -11.850896 -7.425209 35.196354 54.340770 -106.562713 73.250637 96.328726 0.000000 0.000000 0.000000 
